<?xml version="1.0" standalone="no"?>
<!DOCTYPE svg PUBLIC "-//W3C//DTD SVG 20010904//EN"
 "http://www.w3.org/TR/2001/REC-SVG-20010904/DTD/svg10.dtd">
<svg version="1.0" xmlns="http://www.w3.org/2000/svg"
 width="300.000000pt" height="60.000000pt" viewBox="0 0 300.000000 60.000000"
 preserveAspectRatio="xMidYMid meet">
<metadata>
Created by potrace 1.10, written by Peter Selinger 2001-2011
</metadata>
<g transform="translate(0.000000,60.000000) scale(0.100000,-0.100000)"
fill="#000000" stroke="none">
<path d="M10 300 l0 -290 55 0 55 0 0 290 0 290 -55 0 -55 0 0 -290z"/>
<path d="M336 448 l-95 -141 101 -149 102 -148 63 0 c35 0 63 3 63 6 0 3 -32
51 -71 107 -39 55 -73 106 -76 114 -4 10 26 13 156 13 89 0 161 -4 161 -9 0
-5 -22 -55 -50 -112 -27 -57 -50 -107 -50 -111 0 -5 25 -8 55 -8 l56 0 56 120
56 120 104 0 105 0 56 -120 57 -120 57 0 57 0 -16 37 c-8 21 -33 73 -54 115
-22 43 -39 80 -39 83 0 3 65 5 145 5 l145 0 0 -120 0 -120 55 0 55 0 0 120 0
120 200 0 200 0 0 -120 0 -120 55 0 55 0 0 120 0 120 450 0 450 0 0 50 0 50
-930 0 -931 0 -56 120 -56 120 -59 0 -59 0 -56 -120 -56 -120 -194 0 c-106 0
-193 4 -193 8 0 5 26 47 58 93 32 46 66 96 76 112 l18 27 -66 0 -66 0 -94
-142z m661 -34 c14 -30 23 -57 20 -60 -3 -3 -27 -4 -55 -2 l-49 3 25 58 c13
31 26 57 29 57 2 0 16 -25 30 -56z"/>
<path d="M1320 540 l0 -50 215 0 215 0 0 50 0 50 -215 0 -215 0 0 -50z"/>
<path d="M1830 540 l0 -50 215 0 215 0 0 50 0 50 -215 0 -215 0 0 -50z"/>
<path d="M2380 540 l0 -50 310 0 310 0 0 50 0 50 -310 0 -310 0 0 -50z"/>
<path d="M2380 60 l0 -50 310 0 310 0 0 50 0 50 -310 0 -310 0 0 -50z"/>
</g>
</svg>
